<svg xmlns="http://www.w3.org/2000/svg" xmlns:xlink="http://www.w3.org/1999/xlink" width="245.73" height="71.023" viewBox="0 0 245.73 71.023">
  <defs>
    <clipPath id="clip-path">
      <rect id="Rectangle_1315" data-name="Rectangle 1315" width="181.586" height="40.312" fill="#85021a"/>
    </clipPath>
  </defs>
  <g id="Group_446" data-name="Group 446" transform="translate(-575.807 -110.243)">
    <g id="Group_81" data-name="Group 81" transform="translate(639.951 140.013)" clip-path="url(#clip-path)">
      <path id="Path_639" data-name="Path 639" d="M32,10.686A17.524,17.524,0,0,0,20.365,6.243c-8.3,0-13.963,5.871-13.963,14.282,0,8.3,5.766,14.068,13.33,14.068a18.258,18.258,0,0,0,12.216-4.76v6.929a19.533,19.533,0,0,1-11.74,3.543A20.074,20.074,0,0,1,5.716,34.7,19.758,19.758,0,0,1,0,20.472,19.6,19.6,0,0,1,5.77,6.243,19.882,19.882,0,0,1,20.1.583,20.619,20.619,0,0,1,32.319,4.5Zm7.724-9.2h6.137V39.3H39.727ZM80.136,35.757C75.746,39.14,70.775,39.3,64.641,39.3H54.7V1.484H63c7.087,0,12.536,0,17.137,3.544C84.474,8.359,86.8,13.649,86.8,20.419s-2.326,12.006-6.663,15.338M76.117,9.473c-2.8-2.328-6.3-2.486-10.843-2.486H60.83v26.76h5.185c4.177,0,7.4-.212,10.1-2.486,2.856-2.432,4.283-6.083,4.283-10.894S78.973,11.9,76.117,9.474m29.091,12.64L118.218,39.3h-6.929L98.7,22.374h-.687V39.3H92.251V1.484h8.569c4.072,0,7.087.318,9.413,2.115a10.34,10.34,0,0,1,3.648,8.3c0,6.084-2.961,9.521-8.672,10.209M99.495,6.773h-1.11V17.615h1.11c5.4,0,8.094-.636,8.094-5.182,0-4.656-2.593-5.66-8.094-5.66M149.479,39.3l-4.286-9.732H130.226l-4.39,9.732h-6.453L137.685,0l18.3,39.3ZM139.166,15.818a36.458,36.458,0,0,1-1.427-4.286,29.643,29.643,0,0,1-1.376,4.286l-3.86,8.621h10.525Zm38.611,4.6c-2.537,1.8-5.606,1.9-9.466,1.9h-3.544V39.3H159V1.484h9.31c3.857,0,6.929.107,9.466,1.962a10.313,10.313,0,0,1,3.809,8.458,10.436,10.436,0,0,1-3.81,8.514M166.723,6.773h-1.586V17.3h1.586c5.66,0,8.517-.634,8.517-5.024,0-4.549-2.8-5.5-8.517-5.5" transform="translate(0 0)" fill="#85021a"/>
    </g>
    <g id="Group_114" data-name="Group 114" transform="translate(575.807 110.243)">
      <path id="Path_640" data-name="Path 640" d="M0,0H12.369V12.378H0Z" transform="translate(21.444 48.067)" fill="#6b1e7f"/>
      <path id="Path_632" data-name="Path 632" d="M7.927,43.658h10.75V32.912C17.39,34.2,9.257,42.333,7.927,43.658" transform="translate(0.568 2.359)" fill="#005a54"/>
      <path id="Path_633" data-name="Path 633" d="M13.648,36.642c1.474-1.48,17.66-17.667,18.283-18.3C31.3,17.711,14.983,1.344,13.648,0Z" transform="translate(0.978 0)" fill="#405b13"/>
      <path id="Path_634" data-name="Path 634" d="M8.25,4.159,0,12.409c.6.605,10.925,10.926,12.333,12.334-.007-2.033-.051-22.594-.058-24.612L8.25,4.159" transform="translate(0 0.009)" fill="#fc3"/>
      <path id="Path_635" data-name="Path 635" d="M7.485,44.852c1.341,1.34,9.879,9.878,11.218,11.214,0-1.732.005-10.459.005-11.214Z" transform="translate(0.537 3.215)" fill="#003b75"/>
      <path id="Path_636" data-name="Path 636" d="M20.062,31.714V43.57c1.3-1.3,12.184-12.188,12.448-12.448V19.26c-1.425,1.427-12.2,12.2-12.448,12.454" transform="translate(1.438 1.381)" fill="#61a2bc"/>
      <path id="Path_637" data-name="Path 637" d="M33.667,68.723c1.389-1.391,17.665-17.714,18.295-18.343-.626-.629-16.818-16.817-18.295-18.292Z" transform="translate(2.413 2.3)" fill="#900028"/>
    </g>
  </g>
</svg>
